<?xml version="1.0" encoding="utf-8"?>
<!-- Generator: Adobe Illustrator 25.4.1, SVG Export Plug-In . SVG Version: 6.00 Build 0)  -->
<svg version="1.1" id="Layer_1" xmlns="http://www.w3.org/2000/svg" xmlns:xlink="http://www.w3.org/1999/xlink" x="0px" y="0px"
	 viewBox="0 0 88.67 77.78" enable-background="new 0 0 88.67 77.78" xml:space="preserve">
<path fill="#CC881B" d="M78.05,14.44H60.02v-3.82C60.02,4.76,55.26,0,49.41,0H39.26c0,0-0.01,0-0.01,0
	C33.4,0,28.64,4.76,28.64,10.61v3.82H10.61C4.76,14.44,0,19.2,0,25.05v8.43v25.26v8.43c0,0.78,0.09,1.54,0.25,2.27
	c0.02,0.07,0.03,0.15,0.06,0.22c1.12,4.66,5.31,8.13,10.31,8.13h67.43c0,0,0,0,0.01,0c5.85,0,10.61-4.76,10.61-10.61v-8.43V33.48
	v-8.43C88.66,19.2,83.9,14.44,78.05,14.44z"/>
<path fill="#FCC42B" d="M34.03,10.61c0-2.88,2.34-5.22,5.22-5.23c0,0,0,0,0.01,0h10.15c2.88,0,5.22,2.34,5.22,5.23v3.82h-20.6V10.61
	z"/>
<path display="none" fill="#DAEEF6" d="M18.08,39.08c0-3.65,2.97-6.61,6.61-6.61c3.65,0,6.61,2.97,6.61,6.61
	c0,3.65-2.97,6.61-6.61,6.61C21.04,45.69,18.08,42.73,18.08,39.08z"/>
<polygon display="none" fill="#FCC42B" points="22.82,57.53 5.51,64.82 5.41,58.11 20.51,51.9 "/>
<path fill="#FCC42B" d="M78.05,72.39C78.05,72.39,78.05,72.39,78.05,72.39H10.61c-1.71,0-3.23-0.83-4.18-2.1l20.95-8.83
	c1.36-0.57,2.01-2.14,1.44-3.51l-2.85-6.94c6.02-0.64,10.73-5.74,10.73-11.93c0-6.62-5.39-12-12-12c-6.62,0-12,5.38-12,12
	c0,3.41,1.44,6.49,3.73,8.68L5.38,52.3V33.48v-8.43c0-2.88,2.35-5.23,5.23-5.23h67.44c2.88,0,5.22,2.34,5.22,5.23v8.43v17.07
	c-1.11-0.49-2.34-0.78-3.64-0.78c-4.96,0-9,4.04-9,9c0,4.96,4.03,9,9,9c1.3,0,2.53-0.28,3.64-0.78v0.18
	C83.27,70.04,80.93,72.39,78.05,72.39z"/>
<path display="none" fill="#66D3BF" d="M83.24,58.77c0,1.99-1.62,3.61-3.61,3.61s-3.61-1.62-3.61-3.61s1.62-3.61,3.61-3.61
	S83.24,56.78,83.24,58.77z"/>
<path fill="#FCC42B" d="M77.61,72.39H11.38c-3.31,0-6-2.68-6-6V25.46c0-3.31,2.68-6,6-6h66.23c3.31,0,6,2.68,6,6v40.93
	C83.61,69.7,80.92,72.39,77.61,72.39z"/>
<path fill="#69D7C2" stroke="#E9FFFB" stroke-width="2" stroke-miterlimit="10" d="M65.11,44.27H54.22c-1.78,0-3.22-1.44-3.22-3.22
	V28.68c0-1.78,1.44-3.22,3.22-3.22h10.89c1.78,0,3.22,1.44,3.22,3.22v12.37C68.33,42.83,66.89,44.27,65.11,44.27z"/>
<rect x="11.66" y="53.71" transform="matrix(0.9751 -0.2217 0.2217 0.9751 -12.8915 6.5877)" fill="#DAF2F6" stroke="#E9FFFB" stroke-width="2" stroke-miterlimit="10" width="22.48" height="14.03"/>
<circle fill="#E8867C" stroke="#E9FFFB" stroke-width="2" stroke-miterlimit="10" cx="31.5" cy="52.72" r="8.45"/>
<ellipse transform="matrix(0.2377 -0.9713 0.9713 0.2377 6.5145 103.2896)" fill="#8595FB" stroke="#E9FFFB" stroke-width="2" stroke-miterlimit="10" cx="69.06" cy="47.49" rx="11.63" ry="8.01"/>
<polygon fill="#FAF320" stroke="#E9FFFB" stroke-width="2" stroke-miterlimit="10" points="27.29,39.92 20.45,38.47 15.35,43.25 
	14.65,36.33 8.52,33 14.92,30.18 16.24,23.34 20.9,28.51 27.84,27.61 24.31,33.64 "/>
<path fill="#ED992B" stroke="#E9FFFB" stroke-width="2" stroke-miterlimit="10" d="M48.05,68.45l-3.84-3.47
	c-1-0.9-1.08-2.45-0.17-3.45l3.47-3.84c0.9-1,2.45-1.08,3.45-0.17l3.84,3.47c1,0.9,1.08,2.45,0.17,3.45l-3.47,3.84
	C50.6,69.28,49.05,69.36,48.05,68.45z"/>
</svg>
